# Exported from Wings 3D 1.0.2
mtllib tallthincube.mtl
o cube1
#8 vertices, 6 faces
v -0.25000000 -1.00000000  0.25000000
v -0.25000000  1.00000000  0.25000000
v  0.25000000  1.00000000  0.25000000
v  0.25000000 -1.00000000  0.25000000
v -0.25000000 -1.00000000 -0.25000000
v -0.25000000  1.00000000 -0.25000000
v  0.25000000  1.00000000 -0.25000000
v  0.25000000 -1.00000000 -0.25000000
vn -0.57735027 -0.57735027  0.57735027
vn -0.57735027  0.57735027  0.57735027
vn  0.57735027  0.57735027  0.57735027
vn  0.57735027 -0.57735027  0.57735027
vn -0.57735027 -0.57735027 -0.57735027
vn -0.57735027  0.57735027 -0.57735027
vn  0.57735027  0.57735027 -0.57735027
vn  0.57735027 -0.57735027 -0.57735027
# square ends
vt 0.0 0.0
vt 0.25 0.0
vt 0.25 0.25
vt 0.0 0.25
# rectangular sides
vt 0.0 0.0
vt 0.25 0.0
vt 0.25 1.0
vt 0.0 1.0
g cube1_default
usemtl default
# front face
f 1/5/1 4/6/4 3/7/3 2/8/2
# bottom face
f 1/1/1 5/2/5 8/3/8 4/4/4
# left face
f 2/5/2 6/6/6 5/7/5 1/8/1
# top face
f 3/1/3 7/2/7 6/3/6 2/4/2
# right face
f 4/5/4 8/6/8 7/7/7 3/8/3
# back face
f 6/5/6 7/6/7 8/7/8 5/8/5
